<svg id="Layer_1" data-name="Layer 1" xmlns="http://www.w3.org/2000/svg" viewBox="0 0 103.3 45.38"><style>.cls-1{fill: white;}.cls-2{fill:white;}</style><path class="cls-1" d="M22.83,28.55a5.75,5.75,0,1,1,5.72-5.77,5.85,5.85,0,0,1-5.72,5.77m12.91,0.37a12.7,12.7,0,0,0,1.44-6.14,14.38,14.38,0,1,0-14.36,14.4,13.53,13.53,0,0,0,5.66-1.24l2.85,2.63,7.14-7.14ZM0,22.69A22.69,22.69,0,1,1,22.69,45.38,22.69,22.69,0,0,1,0,22.69"/><rect class="cls-2" x="75.38" y="14.82" width="14.76" height="1.08"/><polygon class="cls-1" points="87.48 4.08 89.02 4.08 89.02 5.17 86.19 5.17 86.19 0.21 87.48 0.21 87.48 4.08"/><polygon class="cls-1" points="94.34 5.17 93.05 5.17 93.05 1.31 91.99 1.31 91.99 0.21 95.41 0.21 95.41 1.31 94.34 1.31 94.34 5.17"/><path class="cls-1" d="M100.24,4.08h0.29A1.3,1.3,0,0,0,102,2.69a1.31,1.31,0,0,0-1.41-1.39h-0.3V4.08ZM99,0.21h1.83a2.48,2.48,0,1,1,0,5H99v-5Z"/><path class="cls-1" d="M78,4.06a1.39,1.39,0,1,1,1.39-1.39A1.39,1.39,0,0,1,78,4.06m2.82,0.62-0.6-.6a2.61,2.61,0,1,0-.75.78l0.59,0.58Z"/></svg>