<?xml version="1.0" encoding="utf-8"?>
<!-- Generator: Adobe Illustrator 19.2.1, SVG Export Plug-In . SVG Version: 6.00 Build 0)  -->
<svg version="1.1" id="Layer_1" xmlns="http://www.w3.org/2000/svg" xmlns:xlink="http://www.w3.org/1999/xlink" x="0px" y="0px"
	 viewBox="0 0 103.3 45.4" style="enable-background:new 0 0 103.3 45.4;" xml:space="preserve">
<style type="text/css">
	.st0{fill:#7ECDC3;}
	.st1{fill:#77C7C6;}
</style>
<g>
	<path class="st0" d="M22.8,28.6c-3.1,0-5.8-2.6-5.8-5.8c0-3.1,2.6-5.7,5.8-5.7c3.1,0,5.7,2.6,5.7,5.7
		C28.5,25.9,25.9,28.6,22.8,28.6 M35.7,28.9c1-1.9,1.4-3.9,1.4-6.1c0-7.9-6.5-14.4-14.4-14.4c-7.9,0-14.4,6.5-14.4,14.4
		c0,7.9,6.5,14.4,14.4,14.4c2,0,3.9-0.4,5.7-1.2l2.8,2.6l7.1-7.1L35.7,28.9z M0,22.7C0,10.2,10.2,0,22.7,0
		c12.5,0,22.7,10.2,22.7,22.7c0,12.5-10.2,22.7-22.7,22.7C10.2,45.4,0,35.2,0,22.7"/>
</g>
<rect x="75.4" y="14.8" class="st1" width="14.8" height="1.1"/>
<polygon class="st0" points="87.5,4.1 89,4.1 89,5.2 86.2,5.2 86.2,0.2 87.5,0.2 "/>
<polygon class="st0" points="94.3,5.2 93.1,5.2 93.1,1.3 92,1.3 92,0.2 95.4,0.2 95.4,1.3 94.3,1.3 "/>
<g>
	<path class="st0" d="M100.2,4.1h0.3c0.8,0,1.4-0.4,1.4-1.4c0-0.9-0.6-1.4-1.4-1.4h-0.3V4.1z M99,0.2h1.8c1.4,0,2.5,1.1,2.5,2.5
		c0,1.4-1.1,2.5-2.5,2.5H99V0.2z"/>
	<path class="st0" d="M78,4.1c-0.8,0-1.4-0.6-1.4-1.4c0-0.8,0.6-1.4,1.4-1.4s1.4,0.6,1.4,1.4C79.4,3.4,78.8,4.1,78,4.1 M80.8,4.7
		l-0.6-0.6c0.3-0.4,0.4-0.9,0.4-1.4C80.7,1.2,79.5,0,78,0s-2.6,1.2-2.6,2.6c0,1.5,1.2,2.6,2.6,2.6c0.5,0,1.1-0.2,1.5-0.5l0.6,0.6
		L80.8,4.7z"/>
</g>
</svg>
