<svg id="Layer_1" data-name="Layer 1" xmlns="http://www.w3.org/2000/svg" viewBox="0 0 152.79 29.62"><title>qltd-logo</title><path d="M66.17,22.19h8.46v6H59.11V1h7.06V22.19Z"/><path d="M103.75,28.17H96.69V7H90.86V1h18.73V7h-5.83V28.17Z"/><path d="M129,1h10a13.58,13.58,0,1,1,0,27.15H129V1ZM136,22.19h1.58c4.21,0,7.81-2.31,7.81-7.6,0-4.86-3.2-7.6-7.74-7.6H136v15.2Z"/><path d="M29.9,25.44l-3.29-3.29a14.28,14.28,0,1,0-4.1,4.27l3.2,3.2ZM14.44,22.05a7.61,7.61,0,1,1,7.61-7.61A7.61,7.61,0,0,1,14.44,22.05Z"/></svg>